<svg width="110" height="110" viewBox="0 0 110 110" fill="none" xmlns="http://www.w3.org/2000/svg">
<g filter="url(#filter0_dd_1_14)">
<rect x="15" y="15" width="80" height="80" rx="20" fill="#F1F3F6"/>
</g>
<path d="M61.7453 61.172V65H46.4043V61.955L54.2343 54.56C55.0656 53.7673 55.6263 53.0907 55.9163 52.53C56.2063 51.95 56.3513 51.3797 56.3513 50.819C56.3513 50.007 56.0709 49.3883 55.5103 48.963C54.9689 48.5183 54.1666 48.296 53.1033 48.296C52.2139 48.296 51.4116 48.47 50.6963 48.818C49.9809 49.1467 49.3816 49.6493 48.8983 50.326L45.4763 48.122C46.2689 46.9427 47.3613 46.0243 48.7533 45.367C50.1453 44.6903 51.7403 44.352 53.5383 44.352C55.0463 44.352 56.3609 44.6033 57.4823 45.106C58.6229 45.5893 59.5026 46.2853 60.1213 47.194C60.7593 48.0833 61.0783 49.137 61.0783 50.355C61.0783 51.457 60.8463 52.4913 60.3823 53.458C59.9183 54.4247 59.0193 55.5267 57.6853 56.764L53.0163 61.172H61.7453Z" fill="#3A4E89"/>
<defs>
<filter id="filter0_dd_1_14" x="0" y="0" width="110" height="110" filterUnits="userSpaceOnUse" color-interpolation-filters="sRGB">
<feFlood flood-opacity="0" result="BackgroundImageFix"/>
<feColorMatrix in="SourceAlpha" type="matrix" values="0 0 0 0 0 0 0 0 0 0 0 0 0 0 0 0 0 0 127 0" result="hardAlpha"/>
<feOffset dx="5" dy="5"/>
<feGaussianBlur stdDeviation="5"/>
<feColorMatrix type="matrix" values="0 0 0 0 0.215686 0 0 0 0 0.329412 0 0 0 0 0.666667 0 0 0 0.1 0"/>
<feBlend mode="normal" in2="BackgroundImageFix" result="effect1_dropShadow_1_14"/>
<feColorMatrix in="SourceAlpha" type="matrix" values="0 0 0 0 0 0 0 0 0 0 0 0 0 0 0 0 0 0 127 0" result="hardAlpha"/>
<feOffset dx="-5" dy="-5"/>
<feGaussianBlur stdDeviation="5"/>
<feColorMatrix type="matrix" values="0 0 0 0 1 0 0 0 0 1 0 0 0 0 1 0 0 0 1 0"/>
<feBlend mode="normal" in2="effect1_dropShadow_1_14" result="effect2_dropShadow_1_14"/>
<feBlend mode="normal" in="SourceGraphic" in2="effect2_dropShadow_1_14" result="shape"/>
</filter>
</defs>
</svg>
