<svg width="110" height="110" viewBox="0 0 110 110" fill="none" xmlns="http://www.w3.org/2000/svg">
<g filter="url(#filter0_dd_1_12)">
<rect x="15" y="15" width="80" height="80" rx="20" fill="#F1F3F6"/>
</g>
<path d="M59.4497 54.328C60.4551 54.8307 61.2187 55.488 61.7407 56.3C62.2821 57.112 62.5527 58.0497 62.5527 59.113C62.5527 60.3697 62.1951 61.4717 61.4797 62.419C60.7644 63.347 59.7591 64.072 58.4637 64.594C57.1684 65.0967 55.6701 65.348 53.9687 65.348C52.2674 65.348 50.7691 65.0967 49.4737 64.594C48.1977 64.072 47.2021 63.347 46.4867 62.419C45.7907 61.4717 45.4427 60.3697 45.4427 59.113C45.4427 58.0497 45.7037 57.112 46.2257 56.3C46.7671 55.488 47.5307 54.8307 48.5167 54.328C47.7627 53.864 47.1827 53.284 46.7767 52.588C46.3707 51.8727 46.1677 51.0607 46.1677 50.152C46.1677 48.9727 46.4964 47.948 47.1537 47.078C47.8111 46.208 48.7294 45.541 49.9087 45.077C51.0881 44.5937 52.4414 44.352 53.9687 44.352C55.5154 44.352 56.8784 44.5937 58.0577 45.077C59.2564 45.541 60.1844 46.208 60.8417 47.078C61.4991 47.948 61.8277 48.9727 61.8277 50.152C61.8277 51.0607 61.6247 51.8727 61.2187 52.588C60.8127 53.284 60.2231 53.864 59.4497 54.328ZM53.9687 47.803C53.0214 47.803 52.2577 48.035 51.6777 48.499C51.1171 48.9437 50.8367 49.5623 50.8367 50.355C50.8367 51.1283 51.1171 51.7373 51.6777 52.182C52.2384 52.6267 53.0021 52.849 53.9687 52.849C54.9354 52.849 55.7087 52.6267 56.2887 52.182C56.8687 51.7373 57.1587 51.1283 57.1587 50.355C57.1587 49.5623 56.8687 48.9437 56.2887 48.499C55.7087 48.035 54.9354 47.803 53.9687 47.803ZM53.9687 61.897C55.1481 61.897 56.0761 61.636 56.7527 61.114C57.4487 60.5727 57.7967 59.8573 57.7967 58.968C57.7967 58.0787 57.4487 57.373 56.7527 56.851C56.0761 56.329 55.1481 56.068 53.9687 56.068C52.8087 56.068 51.8904 56.329 51.2137 56.851C50.5371 57.373 50.1987 58.0787 50.1987 58.968C50.1987 59.8767 50.5371 60.592 51.2137 61.114C51.8904 61.636 52.8087 61.897 53.9687 61.897Z" fill="#3A4E89"/>
<defs>
<filter id="filter0_dd_1_12" x="0" y="0" width="110" height="110" filterUnits="userSpaceOnUse" color-interpolation-filters="sRGB">
<feFlood flood-opacity="0" result="BackgroundImageFix"/>
<feColorMatrix in="SourceAlpha" type="matrix" values="0 0 0 0 0 0 0 0 0 0 0 0 0 0 0 0 0 0 127 0" result="hardAlpha"/>
<feOffset dx="5" dy="5"/>
<feGaussianBlur stdDeviation="5"/>
<feColorMatrix type="matrix" values="0 0 0 0 0.215686 0 0 0 0 0.329412 0 0 0 0 0.666667 0 0 0 0.1 0"/>
<feBlend mode="normal" in2="BackgroundImageFix" result="effect1_dropShadow_1_12"/>
<feColorMatrix in="SourceAlpha" type="matrix" values="0 0 0 0 0 0 0 0 0 0 0 0 0 0 0 0 0 0 127 0" result="hardAlpha"/>
<feOffset dx="-5" dy="-5"/>
<feGaussianBlur stdDeviation="5"/>
<feColorMatrix type="matrix" values="0 0 0 0 1 0 0 0 0 1 0 0 0 0 1 0 0 0 1 0"/>
<feBlend mode="normal" in2="effect1_dropShadow_1_12" result="effect2_dropShadow_1_12"/>
<feBlend mode="normal" in="SourceGraphic" in2="effect2_dropShadow_1_12" result="shape"/>
</filter>
</defs>
</svg>
