<svg width="110" height="110" viewBox="0 0 110 110" fill="none" xmlns="http://www.w3.org/2000/svg">
<g filter="url(#filter0_dd_1_18)">
<rect x="15" y="15" width="80" height="80" rx="20" fill="#F1F3F6"/>
</g>
<path d="M56.0329 52.965C57.8116 53.255 59.1746 53.922 60.1219 54.966C61.0693 55.9907 61.5429 57.2667 61.5429 58.794C61.5429 59.9733 61.2336 61.0657 60.6149 62.071C59.9963 63.057 59.0489 63.8497 57.7729 64.449C56.5163 65.0483 54.9696 65.348 53.1329 65.348C51.7023 65.348 50.2909 65.1643 48.8989 64.797C47.5263 64.4103 46.3566 63.869 45.3899 63.173L47.2169 59.577C47.9903 60.157 48.8796 60.6113 49.8849 60.94C50.9096 61.2493 51.9536 61.404 53.0169 61.404C54.1963 61.404 55.1243 61.1817 55.8009 60.737C56.4776 60.273 56.8159 59.6253 56.8159 58.794C56.8159 57.1313 55.5496 56.3 53.0169 56.3H50.8709V53.197L55.0469 48.47H46.4049V44.7H60.6149V47.745L56.0329 52.965Z" fill="#3A4E89"/>
<defs>
<filter id="filter0_dd_1_18" x="0" y="0" width="110" height="110" filterUnits="userSpaceOnUse" color-interpolation-filters="sRGB">
<feFlood flood-opacity="0" result="BackgroundImageFix"/>
<feColorMatrix in="SourceAlpha" type="matrix" values="0 0 0 0 0 0 0 0 0 0 0 0 0 0 0 0 0 0 127 0" result="hardAlpha"/>
<feOffset dx="5" dy="5"/>
<feGaussianBlur stdDeviation="5"/>
<feColorMatrix type="matrix" values="0 0 0 0 0.215686 0 0 0 0 0.329412 0 0 0 0 0.666667 0 0 0 0.1 0"/>
<feBlend mode="normal" in2="BackgroundImageFix" result="effect1_dropShadow_1_18"/>
<feColorMatrix in="SourceAlpha" type="matrix" values="0 0 0 0 0 0 0 0 0 0 0 0 0 0 0 0 0 0 127 0" result="hardAlpha"/>
<feOffset dx="-5" dy="-5"/>
<feGaussianBlur stdDeviation="5"/>
<feColorMatrix type="matrix" values="0 0 0 0 1 0 0 0 0 1 0 0 0 0 1 0 0 0 1 0"/>
<feBlend mode="normal" in2="effect1_dropShadow_1_18" result="effect2_dropShadow_1_18"/>
<feBlend mode="normal" in="SourceGraphic" in2="effect2_dropShadow_1_18" result="shape"/>
</filter>
</defs>
</svg>
