<svg width="110" height="110" viewBox="0 0 110 110" fill="none" xmlns="http://www.w3.org/2000/svg">
<g filter="url(#filter0_dd_1_15)">
<rect x="15" y="15" width="80" height="80" rx="20" fill="#F1F3F6"/>
</g>
<path d="M47.1132 55.662C45.6245 55.662 44.4065 55.1593 43.4592 54.154C42.5312 53.1293 42.0672 51.7663 42.0672 50.065C42.0672 48.3637 42.5312 47.0103 43.4592 46.005C44.4065 44.9803 45.6245 44.468 47.1132 44.468C48.6018 44.468 49.8102 44.9803 50.7382 46.005C51.6662 47.0103 52.1302 48.3637 52.1302 50.065C52.1302 51.7663 51.6662 53.1293 50.7382 54.154C49.8102 55.1593 48.6018 55.662 47.1132 55.662ZM59.2062 44.7H62.6572L48.7952 65H45.3442L59.2062 44.7ZM47.1132 53.284C47.7705 53.284 48.2828 53.0133 48.6502 52.472C49.0368 51.9307 49.2302 51.1283 49.2302 50.065C49.2302 49.0017 49.0368 48.1993 48.6502 47.658C48.2828 47.1167 47.7705 46.846 47.1132 46.846C46.4752 46.846 45.9628 47.1263 45.5762 47.687C45.1895 48.2283 44.9962 49.021 44.9962 50.065C44.9962 51.109 45.1895 51.9113 45.5762 52.472C45.9628 53.0133 46.4752 53.284 47.1132 53.284ZM60.8882 65.232C59.9215 65.232 59.0515 65.0097 58.2782 64.565C57.5242 64.101 56.9345 63.4437 56.5092 62.593C56.0838 61.7423 55.8712 60.7563 55.8712 59.635C55.8712 58.5137 56.0838 57.5277 56.5092 56.677C56.9345 55.8263 57.5242 55.1787 58.2782 54.734C59.0515 54.27 59.9215 54.038 60.8882 54.038C62.3768 54.038 63.5852 54.5503 64.5132 55.575C65.4605 56.5803 65.9342 57.9337 65.9342 59.635C65.9342 61.3363 65.4605 62.6993 64.5132 63.724C63.5852 64.7293 62.3768 65.232 60.8882 65.232ZM60.8882 62.854C61.5455 62.854 62.0578 62.5833 62.4252 62.042C62.8118 61.4813 63.0052 60.679 63.0052 59.635C63.0052 58.591 62.8118 57.7983 62.4252 57.257C62.0578 56.6963 61.5455 56.416 60.8882 56.416C60.2502 56.416 59.7378 56.6867 59.3512 57.228C58.9645 57.7693 58.7712 58.5717 58.7712 59.635C58.7712 60.6983 58.9645 61.5007 59.3512 62.042C59.7378 62.5833 60.2502 62.854 60.8882 62.854Z" fill="#3A4E89"/>
<defs>
<filter id="filter0_dd_1_15" x="0" y="0" width="110" height="110" filterUnits="userSpaceOnUse" color-interpolation-filters="sRGB">
<feFlood flood-opacity="0" result="BackgroundImageFix"/>
<feColorMatrix in="SourceAlpha" type="matrix" values="0 0 0 0 0 0 0 0 0 0 0 0 0 0 0 0 0 0 127 0" result="hardAlpha"/>
<feOffset dx="5" dy="5"/>
<feGaussianBlur stdDeviation="5"/>
<feColorMatrix type="matrix" values="0 0 0 0 0.215686 0 0 0 0 0.329412 0 0 0 0 0.666667 0 0 0 0.1 0"/>
<feBlend mode="normal" in2="BackgroundImageFix" result="effect1_dropShadow_1_15"/>
<feColorMatrix in="SourceAlpha" type="matrix" values="0 0 0 0 0 0 0 0 0 0 0 0 0 0 0 0 0 0 127 0" result="hardAlpha"/>
<feOffset dx="-5" dy="-5"/>
<feGaussianBlur stdDeviation="5"/>
<feColorMatrix type="matrix" values="0 0 0 0 1 0 0 0 0 1 0 0 0 0 1 0 0 0 1 0"/>
<feBlend mode="normal" in2="effect1_dropShadow_1_15" result="effect2_dropShadow_1_15"/>
<feBlend mode="normal" in="SourceGraphic" in2="effect2_dropShadow_1_15" result="shape"/>
</filter>
</defs>
</svg>
